# xmcd
#
# Track frame offsets:
# 150
# 13135
# 26997
# 43432
# 61114
# 73060
# 87654
# 104365
# 117277
# 132657
# 148290
#
# Disc length: 2178 seconds
#
#
# Revision: 6
# Processed by: cddbd v1.5PL3 Copyright (c) Steve Scherf et al.
# Submitted via: FreeRIP 2.60 
#
DISCID=b108800b
DTITLE=Cowgirls - Girls Night Out
DYEAR=2001
DGENRE=Country
TTITLE0=Girls Night Out
TTITLE1=Teach Your Children
TTITLE2=Heart Trouble
TTITLE3=What Kind of Love
TTITLE4=That's What I Like About You
TTITLE5=If I needed You
TTITLE6=Ready To Run
TTITLE7=Sweet Dreams
TTITLE8=The Heart Is A Gambler
TTITLE9=Somewhere Under The Rainbow
TTITLE10=Ride On
EXTD=YEAR: 2001 ID3G: 2\n\nRecord number CMC 5262742 YEAR: 2001 ID3G: 2\n\nRecord number CMC 5262742
EXTT0=
EXTT1=
EXTT2=
EXTT3=
EXTT4=
EXTT5=
EXTT6=
EXTT7=
EXTT8=
EXTT9=
EXTT10=
PLAYORDER=
